
v -493.29204930987567 5.861064505540909 -626.2794029769726
v 523.5830917671954 5.861064505540909 -626.2794029769726
v 523.5830917671954 15.86106450554091 -626.2794029769726
v -493.29204930987567 15.86106450554091 -626.2794029769726
v 523.5830917671954 5.861064505540909 385.46518729612563
v 523.5830917671954 15.86106450554091 385.46518729612563
v -493.29204930987567 5.861064505540909 385.46518729612563
v -493.29204930987567 15.86106450554091 385.46518729612563
# 8 vertices
vt 1.9269220676167018 1.0228947832247692
vt -2.045246452215607 1.0228947832247692
vt -2.045246452215607 1.0619572832247692
vt 1.9269220676167018 1.0619572832247692
vt 2.4464039178787993 1.0228947832247692
vt -1.5057233878754908 1.0228947832247692
vt -1.5057233878754908 1.0619572832247692
vt 2.4464039178787993 1.0619572832247692
vt 2.045246452215607 1.0228947832247692
vt -1.9269220676167018 1.0228947832247692
vt -1.9269220676167018 1.0619572832247692
vt 2.045246452215607 1.0619572832247692
vt 1.5057233878754908 1.0228947832247692
vt -2.4464039178787993 1.0228947832247692
vt -2.4464039178787993 1.0619572832247692
vt 1.5057233878754908 1.0619572832247692
vt -1.9269220676167018 2.5057233878754905
vt 2.045246452215607 2.5057233878754905
vt 2.045246452215607 -1.4464039178787993
vt -1.9269220676167018 -1.4464039178787993
vt -1.9269220676167018 3.4464039178787993
vt 2.045246452215607 3.4464039178787993
vt 2.045246452215607 -0.5057233878754908
vt -1.9269220676167018 -0.5057233878754908
# 24 uvs
vn -0.3333333333333333 -0.3333333333333333 -0.3333333333333333
vn 0.3333333333333333 -0.3333333333333333 -0.3333333333333333
vn 0.3333333333333333 0.3333333333333333 -0.3333333333333333
vn -0.3333333333333333 0.3333333333333333 -0.3333333333333333
vn 0.3333333333333333 -0.3333333333333333 0.3333333333333333
vn 0.3333333333333333 0.3333333333333333 0.3333333333333333
vn -0.3333333333333333 -0.3333333333333333 0.3333333333333333
vn -0.3333333333333333 0.3333333333333333 0.3333333333333333
# 8 normals
usemtl 92a1cf
f 4/4/4 3/3/3 2/2/2 1/1/1 
f 3/8/3 6/7/6 5/6/5 2/5/2 
f 6/12/6 8/11/8 7/10/7 5/9/5 
f 8/16/8 4/15/4 1/14/1 7/13/7 
f 1/20/1 2/19/2 5/18/5 7/17/7 
f 8/24/8 6/23/6 3/22/3 4/21/4 

v 434.5371463626161 0 453.17744679191105
v -558.4889159576142 0 453.17744679191105
v -558.4889159576142 256 453.17744679191105
v 434.5371463626161 256 453.17744679191105
v -558.4889159576142 0 417.6222837570722
v -558.4889159576142 256 417.6222837570722
v 434.5371463626161 0 417.6222837570722
v 434.5371463626161 256 417.6222837570722
# 8 vertices
vt 1.6974107279789692 1
vt -2.1815973279594303 1
vt -2.1815973279594303 2
vt 1.6974107279789692 2
vt 1.7702244015309025 1
vt 1.6313370459260632 1
vt 1.6313370459260632 2
vt 1.7702244015309025 2
vt 2.1815973279594303 1
vt -1.6974107279789692 1
vt -1.6974107279789692 2
vt 2.1815973279594303 2
vt -1.6313370459260632 1
vt -1.7702244015309025 1
vt -1.7702244015309025 2
vt -1.6313370459260632 2
vt 1.6974107279789692 2.631337045926063
vt -2.1815973279594303 2.631337045926063
vt -2.1815973279594303 2.7702244015309025
vt 1.6974107279789692 2.7702244015309025
vt 1.6974107279789692 -0.7702244015309025
vt -2.1815973279594303 -0.7702244015309025
vt -2.1815973279594303 -0.6313370459260632
vt 1.6974107279789692 -0.6313370459260632
# 24 uvs
vn 0.3333333333333333 -0.3333333333333333 0.3333333333333333
vn -0.3333333333333333 -0.3333333333333333 0.3333333333333333
vn -0.3333333333333333 0.3333333333333333 0.3333333333333333
vn 0.3333333333333333 0.3333333333333333 0.3333333333333333
vn -0.3333333333333333 -0.3333333333333333 -0.3333333333333333
vn -0.3333333333333333 0.3333333333333333 -0.3333333333333333
vn 0.3333333333333333 -0.3333333333333333 -0.3333333333333333
vn 0.3333333333333333 0.3333333333333333 -0.3333333333333333
# 8 normals
usemtl ccccff
f 12/28/12 11/27/11 10/26/10 9/25/9 
f 11/32/11 14/31/14 13/30/13 10/29/10 
f 14/36/14 16/35/16 15/34/15 13/33/13 
f 16/40/16 12/39/12 9/38/9 15/37/15 
f 9/44/9 10/43/10 13/42/13 15/41/15 
f 16/48/16 14/47/14 11/46/11 12/45/12 

v -581.2783466054098 0 418.0399827819514
v -561.2559239868915 0 418.0399827819514
v -561.2559239868915 256 418.0399827819514
v -581.2783466054098 256 418.0399827819514
v -561.2559239868915 0 -636.0718082234904
v -561.2559239868915 256 -636.0718082234904
v -581.2783466054098 0 -636.0718082234904
v -581.2783466054098 256 -636.0718082234904
# 8 vertices
vt -2.270618541427382 2
vt -2.192405953073795 2
vt -2.192405953073795 1
vt -2.270618541427382 1
vt -1.6329686827419976 2
vt 2.4846555008730093 2
vt 2.4846555008730093 1
vt -1.6329686827419976 1
vt 2.192405953073795 2
vt 2.270618541427382 2
vt 2.270618541427382 1
vt 2.192405953073795 1
vt -2.4846555008730093 2
vt 1.6329686827419976 2
vt 1.6329686827419976 1
vt -2.4846555008730093 1
vt -2.270618541427382 2.6329686827419976
vt -2.192405953073795 2.6329686827419976
vt -2.192405953073795 -1.4846555008730093
vt -2.270618541427382 -1.4846555008730093
vt -2.270618541427382 3.4846555008730093
vt -2.192405953073795 3.4846555008730093
vt -2.192405953073795 -0.6329686827419976
vt -2.270618541427382 -0.6329686827419976
# 24 uvs
vn -0.3333333333333333 -0.3333333333333333 0.3333333333333333
vn 0.3333333333333333 -0.3333333333333333 0.3333333333333333
vn 0.3333333333333333 0.3333333333333333 0.3333333333333333
vn -0.3333333333333333 0.3333333333333333 0.3333333333333333
vn 0.3333333333333333 -0.3333333333333333 -0.3333333333333333
vn 0.3333333333333333 0.3333333333333333 -0.3333333333333333
vn -0.3333333333333333 -0.3333333333333333 -0.3333333333333333
vn -0.3333333333333333 0.3333333333333333 -0.3333333333333333

f 17/52/17 18/51/18 19/50/19 20/49/20 
f 18/56/18 21/55/21 22/54/22 19/53/19 
f 21/60/21 23/59/23 24/58/24 22/57/22 
f 23/64/23 17/63/17 20/62/20 24/61/24 
f 23/68/23 21/67/21 18/66/18 17/65/17 
f 20/72/20 19/71/19 22/70/22 24/69/24 

v -493.02454369758743 0 -647.5372613912457
v 495.28130619739795 0 -647.5372613912457
v 495.28130619739795 256 -647.5372613912457
v -493.02454369758743 256 -647.5372613912457
v 495.28130619739795 0 -646.1491057494384
v 495.28130619739795 256 -646.1491057494384
v -493.02454369758743 0 -646.1491057494384
v -493.02454369758743 256 -646.1491057494384
# 8 vertices
vt 1.925877123818701 1
vt -1.9346926023335858 1
vt -1.9346926023335858 2
vt 1.925877123818701 2
vt 2.5294424273095535 1
vt 2.5240199443337437 1
vt 2.5240199443337437 2
vt 2.5294424273095535 2
vt 1.9346926023335858 1
vt -1.925877123818701 1
vt -1.925877123818701 2
vt 1.9346926023335858 2
vt -2.5240199443337437 1
vt -2.5294424273095535 1
vt -2.5294424273095535 2
vt -2.5240199443337437 2
vt -1.925877123818701 -1.5240199443337437
vt 1.9346926023335858 -1.5240199443337437
vt 1.9346926023335858 -1.5294424273095535
vt -1.925877123818701 -1.5294424273095535
vt -1.925877123818701 3.5294424273095535
vt 1.9346926023335858 3.5294424273095535
vt 1.9346926023335858 3.5240199443337437
vt -1.925877123818701 3.5240199443337437
# 24 uvs
vn -0.3333333333333333 -0.3333333333333333 -0.3333333333333333
vn 0.3333333333333333 -0.3333333333333333 -0.3333333333333333
vn 0.3333333333333333 0.3333333333333333 -0.3333333333333333
vn -0.3333333333333333 0.3333333333333333 -0.3333333333333333
vn 0.3333333333333333 -0.3333333333333333 0.3333333333333333
vn 0.3333333333333333 0.3333333333333333 0.3333333333333333
vn -0.3333333333333333 -0.3333333333333333 0.3333333333333333
vn -0.3333333333333333 0.3333333333333333 0.3333333333333333
# 8 normals
usemtl 6495ed
f 28/76/28 27/75/27 26/74/26 25/73/25 
f 27/80/27 30/79/30 29/78/29 26/77/26 
f 30/84/30 32/83/32 31/82/31 29/81/29 
f 32/88/32 28/87/28 25/86/25 31/85/31 
f 25/92/25 26/91/26 29/90/29 31/89/31 
f 32/96/32 30/95/30 27/94/27 28/93/28 
# 6 polygons